<svg width="168" height="32" viewBox="0 0 168 32" fill="none" xmlns="http://www.w3.org/2000/svg">
<path fill-rule="evenodd" clip-rule="evenodd" d="M156.659 10.9727C155.965 11.301 155.424 11.7322 155.034 12.2672C154.644 12.8021 154.389 13.3239 154.267 13.8349H163.069C162.777 12.7411 162.235 11.9086 161.444 11.3373C160.652 10.7664 159.758 10.4808 158.76 10.4808C158.054 10.4808 157.353 10.6448 156.659 10.9727ZM168 17.2257H154.12C154.243 17.8332 154.48 18.4707 154.833 19.1397C155.186 19.8078 155.716 20.3607 156.422 20.798C157.128 21.2359 157.883 21.4542 158.686 21.4542C159.879 21.4542 160.823 21.2419 161.517 20.8163C162.211 20.3914 162.777 19.8015 163.215 19.0483L167.525 19.9595C166.746 21.8068 165.583 23.2046 164.037 24.1521C162.491 25.1003 160.707 25.5738 158.686 25.5738C157.42 25.5738 156.214 25.3428 155.071 24.8816C153.926 24.4197 152.928 23.7575 152.076 22.8943C151.223 22.0314 150.554 21.0046 150.067 19.8138C149.579 18.6227 149.336 17.3346 149.336 15.9492C149.336 14.5637 149.579 13.276 150.067 12.0849C150.554 10.8941 151.229 9.8669 152.094 9.00405C152.958 8.14157 153.969 7.473 155.125 6.99909C156.282 6.52517 157.493 6.28784 158.76 6.28784C159.952 6.28784 161.103 6.51282 162.211 6.9624C163.319 7.41236 164.299 8.04986 165.151 8.8764C166.003 9.70294 166.679 10.6931 167.178 11.8479C167.677 13.002 167.951 14.2482 168 15.5846V17.2257Z" fill="#00466E"/>
<path fill-rule="evenodd" clip-rule="evenodd" d="M140.829 25.0275H135.715L128.118 6.79834H133.305L138.273 19.1575L143.239 6.79834H148.426L140.829 25.0275Z" fill="#00466E"/>
<path fill-rule="evenodd" clip-rule="evenodd" d="M117.372 25.0275H112.433V16.1486C112.422 15.5511 112.465 12.0058 115.005 9.38877C116.151 8.20698 118.256 6.79834 121.771 6.79834H125.445V11.5393H121.771C120.317 11.5393 119.264 11.8961 118.552 12.6305C117.381 13.8363 117.37 16.0209 117.37 16.0411C117.371 16.067 117.372 16.0932 117.372 16.1194V25.0275Z" fill="#00466E"/>
<path fill-rule="evenodd" clip-rule="evenodd" d="M97.801 10.9727C97.1072 11.301 96.5657 11.7322 96.1757 12.2672C95.7864 12.8021 95.531 13.3239 95.4091 13.8349H104.211C103.919 12.7411 103.377 11.9086 102.586 11.3373C101.794 10.7664 100.9 10.4808 99.901 10.4808C99.1956 10.4808 98.4955 10.6448 97.801 10.9727ZM109.142 17.2257H95.2625C95.3848 17.8332 95.6218 18.4707 95.975 19.1397C96.3283 19.8078 96.8578 20.3607 97.564 20.798C98.2697 21.2359 99.025 21.4542 99.8279 21.4542C101.021 21.4542 101.965 21.2419 102.659 20.8163C103.353 20.3914 103.919 19.8015 104.357 19.0483L108.667 19.9595C107.888 21.8068 106.725 23.2046 105.179 24.1521C103.633 25.1003 101.849 25.5738 99.8279 25.5738C98.5619 25.5738 97.3566 25.3428 96.2128 24.8816C95.0683 24.4197 94.0696 23.7575 93.2176 22.8943C92.3656 22.0314 91.6962 21.0046 91.2087 19.8138C90.7215 18.6227 90.4781 17.3346 90.4781 15.9492C90.4781 14.5637 90.7215 13.276 91.2087 12.0849C91.6962 10.8941 92.3712 9.8669 93.2356 9.00405C94.1004 8.14157 95.111 7.473 96.2672 6.99909C97.4237 6.52517 98.635 6.28784 99.901 6.28784C101.094 6.28784 102.245 6.51282 103.353 6.9624C104.461 7.41236 105.441 8.04986 106.293 8.8764C107.145 9.70294 107.821 10.6931 108.32 11.8479C108.819 13.002 109.093 14.2482 109.142 15.5846V17.2257Z" fill="#00466E"/>
<path fill-rule="evenodd" clip-rule="evenodd" d="M89.0193 25.0275H83.285L79.3043 19.2672L75.3595 25.0275H69.6249L75.7612 16.168L69.6249 6.79834H75.3595L79.3043 12.9237L83.285 6.79834H89.0193L82.883 16.168L89.0193 25.0275Z" fill="#00466E"/>
<path fill-rule="evenodd" clip-rule="evenodd" d="M56.0045 21.4116C53.1604 21.4116 50.8548 18.9579 50.8548 15.9309C50.8548 12.904 53.1604 10.4502 56.0045 10.4502C57.8503 10.4502 59.4647 11.4868 60.3733 13.0396V18.0763C60.3733 18.3076 60.3872 18.5356 60.4082 18.7613C59.5063 20.3478 57.8739 21.4116 56.0045 21.4116ZM65.31 18.0764V6.835H60.3733V7.74689C58.9498 6.82788 57.275 6.28809 55.4749 6.28809C50.341 6.28809 46.1799 10.6053 46.1799 15.9311C46.1799 21.2568 50.341 25.574 55.4749 25.574C58.0595 25.574 60.3966 24.478 62.0811 22.7115C63.4027 24.268 65.3715 25.26 67.5705 25.26V20.3325C66.3244 20.3325 65.31 19.32 65.31 18.0764Z" fill="#00466E"/>
<path fill-rule="evenodd" clip-rule="evenodd" d="M0 4.47631L4.37568 8.74995C4.73128 8.39046 5.34089 7.94391 5.65329 7.73928C7.41559 6.57789 9.47312 6.01329 11.607 6.10743C16.6153 6.32718 20.7831 10.3911 21.0956 15.3586L27.2188 14.9784C26.9727 11.0642 25.2661 7.37687 22.4134 4.59557C19.562 1.81574 15.8202 0.189257 11.8777 0.0163405C11.6325 0.00536553 11.3878 0 11.1439 0C7.96605 0.000243888 4.91215 0.911652 2.27963 2.64667C2.14489 2.73422 0.936244 3.52905 0 4.47631Z" fill="url(#paint0_linear)"/>
<path fill-rule="evenodd" clip-rule="evenodd" d="M21.0954 15.3585C21.2697 18.1308 20.3177 20.766 18.4151 22.7785C16.5109 24.793 13.9309 25.9027 11.1509 25.9027V31.9999C15.5771 31.9999 19.8551 30.1605 22.8867 26.9534C25.9612 23.7012 27.4997 19.4482 27.2187 14.9783L21.0954 15.3585Z" fill="url(#paint1_linear)"/>
<path fill-rule="evenodd" clip-rule="evenodd" d="M11.0042 31.9999H11.1993V25.9027H11.0042C8.96218 25.9027 7.17534 24.4752 6.84796 22.5827C6.61187 21.2196 7.18761 20.1572 7.55204 19.6453L2.54271 16.125C0.966678 18.3395 0.348487 20.9998 0.801025 23.6163C1.64229 28.474 5.93331 31.9999 11.0042 31.9999Z" fill="url(#paint2_linear)"/>
<path fill-rule="evenodd" clip-rule="evenodd" d="M7.51279 19.699C9.38725 17.1826 12.2662 15.7393 15.4114 15.7393C15.7451 15.7393 16.0811 15.7559 16.3942 15.7871C21.1343 16.2853 25.5245 18.432 28.7558 21.8316L33.2157 17.645C28.9797 13.188 23.2346 10.375 17.0237 9.72208C16.4917 9.66916 15.9493 9.64209 15.4114 9.64209C10.3765 9.64209 5.54141 12.0993 2.54272 16.1251L7.51279 19.699Z" fill="url(#paint3_linear)"/>
<defs>
<linearGradient id="paint0_linear" x1="3.18381" y1="5.89565" x2="5.789" y2="18.0194" gradientUnits="userSpaceOnUse">
<stop stop-color="#88E766"/>
<stop offset="1" stop-color="#63DA90"/>
</linearGradient>
<linearGradient id="paint1_linear" x1="20.7913" y1="11.1219" x2="8.02112" y2="21.5749" gradientUnits="userSpaceOnUse">
<stop stop-color="#63DA90"/>
<stop offset="1" stop-color="#47D0AF"/>
</linearGradient>
<linearGradient id="paint2_linear" x1="11.0103" y1="23.9443" x2="5.40139" y2="20.8303" gradientUnits="userSpaceOnUse">
<stop stop-color="#47D0AF"/>
<stop offset="1" stop-color="#1FC2DD"/>
</linearGradient>
<linearGradient id="paint3_linear" x1="6.32203" y1="23.072" x2="25.4063" y2="31.7853" gradientUnits="userSpaceOnUse">
<stop stop-color="#1FC2DD"/>
<stop offset="1" stop-color="#00B7FF"/>
</linearGradient>
</defs>
</svg>
